<svg width="97" height="38" viewBox="0 0 97 38" fill="none" xmlns="http://www.w3.org/2000/svg">
<path d="M88.7638 20.8557C85.6154 20.8557 83.665 18.766 83.665 15.2553V6.31152H87.2314V14.5866C87.2314 16.7599 88.0673 17.7629 89.6554 17.7629C91.4943 17.7629 92.8875 16.3977 92.8875 13.3328V6.31152H96.4538V20.4099H93.2218V18.2923C92.3581 20.0198 90.7978 20.8557 88.7638 20.8557Z" fill="#160804" style="fill:#160804;fill:color(display-p3 0.0863 0.0314 0.0157);fill-opacity:1;"/>
<path d="M80.7076 20.4106C77.3642 20.4106 75.5252 18.5717 75.5252 15.479V9.32141H72.9619V6.31228H74.6058C75.3581 6.31228 75.7481 5.92221 75.7481 5.19779V2.02148H79.008V6.31228H81.9614V9.32141H79.0916V16.5656C79.0916 17.1507 79.3703 17.4015 79.9554 17.4015H82.3237V20.4106H80.7076Z" fill="#160804" style="fill:#160804;fill:color(display-p3 0.0863 0.0314 0.0157);fill-opacity:1;"/>
<path d="M65.4932 20.8561C61.0631 20.8561 58.249 17.9027 58.249 13.3612C58.249 8.87534 61.0353 5.86621 65.4932 5.86621C70.3134 5.86621 72.9325 9.37686 72.208 14.3085H61.8154C62.0104 16.6489 63.3478 17.9863 65.4932 17.9863C67.2486 17.9863 68.3073 17.0669 68.5859 16.1474H72.1245C71.5672 18.8779 69.1153 20.8561 65.4932 20.8561ZM61.899 11.8845H68.7531C68.7253 9.96197 67.4993 8.65244 65.4096 8.65244C63.5429 8.65244 62.2333 9.76694 61.899 11.8845Z" fill="#160804" style="fill:#160804;fill:color(display-p3 0.0863 0.0314 0.0157);fill-opacity:1;"/>
<path d="M52.7308 12.1914C55.5727 12.6929 57.0773 14.0861 57.0773 16.3708C57.0773 19.157 54.7369 20.8287 51.0033 20.8287C46.9354 20.8287 44.4557 18.8784 44.3721 15.6742H47.6877C47.8827 17.1788 48.9415 18.0704 50.9197 18.0704C52.5357 18.0704 53.5109 17.4853 53.5109 16.3708C53.5109 15.507 52.9258 15.0334 51.5048 14.7826L49.3316 14.4204C46.2667 13.8632 44.7064 12.4979 44.7064 10.2968C44.7064 7.67772 46.8518 5.89453 50.4461 5.89453C54.0403 5.89453 56.4365 7.67772 56.6315 10.7426H53.2323C53.093 9.40518 52.1178 8.56931 50.4182 8.56931C48.8579 8.56931 48.1335 9.23801 48.1335 10.1575C48.1335 10.9655 48.7186 11.4391 50.3625 11.7456L52.7308 12.1914Z" fill="#160804" style="fill:#160804;fill:color(display-p3 0.0863 0.0314 0.0157);fill-opacity:1;"/>
<path fill-rule="evenodd" clip-rule="evenodd" d="M0 18.5366C0 9.79836 0 5.42924 2.71462 2.71462C5.42924 0 9.79836 0 18.5366 0H19.4634C28.2016 0 32.5708 0 35.2854 2.71462C38 5.42924 38 9.79836 38 18.5366V19.4634C38 28.2016 38 32.5708 35.2854 35.2854C32.5708 38 28.2016 38 19.4634 38H18.5366C9.79836 38 5.42924 38 2.71462 35.2854C0 32.5708 0 28.2016 0 19.4634V18.5366ZM21.4015 16.9246C20.626 16.7049 19.8221 16.5892 18.9978 16.5892C18.1431 16.5892 17.3101 16.7137 16.508 16.9495C12.8596 18.0229 9.85548 21.406 8.38977 25.8992C8.09765 26.7946 7.95148 27.2424 8.22629 27.539C8.5011 27.8357 8.98251 27.7184 9.94531 27.484L11.5115 27.1025C11.7245 27.0507 11.9011 27.0077 12.05 26.9658C12.1817 26.9287 12.2916 26.8923 12.3857 26.8513C12.4959 26.8034 12.5844 26.7493 12.6609 26.6801C12.8765 26.4848 12.9925 26.1555 13.2244 25.4969C14.0043 23.2823 15.1516 21.3626 16.508 20.4276C17.2801 19.8954 18.1197 19.6035 18.9978 19.6035C19.8434 19.6035 20.6533 19.8741 21.4015 20.3692C22.7995 21.2947 23.9819 23.249 24.7783 25.517C25.0101 26.177 25.126 26.507 25.3417 26.7025C25.5575 26.898 25.8691 26.9738 26.4924 27.1256L28.0575 27.5066C29.0192 27.7408 29.5001 27.8581 29.775 27.5619C30.0497 27.2654 29.9044 26.8181 29.6137 25.9232C28.1394 21.3827 25.0952 17.9716 21.4015 16.9246ZM18.9973 13.2643C22.3076 13.2643 25.1643 13.9769 26.9699 14.5706C27.9517 14.8933 28.4426 15.0546 28.7273 14.8487C29.0119 14.6426 29.012 14.1504 29.012 13.1659V12.6303C29.012 11.5071 29.0119 10.9455 28.6687 10.5556C28.3255 10.1657 27.7852 10.0965 26.7044 9.95798C21.567 9.3002 16.4345 9.30178 11.2972 9.95866C10.2157 10.0969 9.67503 10.1659 9.33176 10.5558C8.9885 10.9459 8.9885 11.5075 8.9885 12.6312V13.1634C8.9885 14.1482 8.9885 14.6403 9.27316 14.8465C9.55747 15.0524 10.0478 14.8915 11.0285 14.569L11.0309 14.5684C12.8349 13.9755 15.6884 13.2643 18.9973 13.2643Z" fill="#160804" style="fill:#160804;fill:color(display-p3 0.0863 0.0314 0.0157);fill-opacity:1;"/>
<path d="M47.8405 31.6425C47.5634 31.6446 47.3038 31.5782 47.0619 31.4435C46.8199 31.309 46.6233 31.1231 46.472 30.8853C46.3204 30.6476 46.2437 30.3756 46.2417 30.0693C46.2413 30.0625 46.2413 30.057 46.2413 30.0523V30.0355L46.6532 30.0223C46.6532 30.0269 46.6532 30.0319 46.6536 30.0375V30.0528C46.6548 30.2464 46.7072 30.423 46.8112 30.5822C46.9143 30.7413 47.0499 30.8677 47.2174 30.9611C47.3846 31.0544 47.5642 31.1007 47.7557 31.0993C48.0733 31.0971 48.3364 30.9865 48.5455 30.7677C48.7547 30.5488 48.8575 30.2167 48.8542 29.7705C48.8511 29.3225 48.7443 28.9914 48.5331 28.7778C48.3224 28.5643 48.0569 28.4585 47.7374 28.4606C47.5458 28.462 47.3671 28.5101 47.2011 28.6047C47.0347 28.6995 46.9012 28.8258 46.8 28.9842C46.6984 29.1427 46.6484 29.3197 46.6496 29.5157L46.2377 29.505C46.2353 29.1965 46.3085 28.9246 46.4565 28.6892C46.6048 28.4541 46.7987 28.2695 47.0387 28.1362C47.2791 28.0028 47.5374 27.935 47.8145 27.933C48.1048 27.931 48.3736 28.0008 48.62 28.142C48.8666 28.2833 49.0651 28.4909 49.2158 28.7646C49.3661 29.0386 49.4429 29.3723 49.4457 29.7663C49.4486 30.1673 49.3778 30.5074 49.233 30.7865C49.0887 31.0659 48.8943 31.2779 48.6496 31.4224C48.4052 31.5672 48.1357 31.6405 47.8405 31.6425ZM46.0866 31.5874L46.0498 26.3072L46.6272 26.303L46.664 31.5832L46.0866 31.5874Z" fill="#160804" style="fill:#160804;fill:color(display-p3 0.0863 0.0314 0.0157);fill-opacity:1;"/>
<path d="M50.2518 33.0751C50.1618 33.0757 50.0794 33.0713 50.005 33.0615C49.9307 33.0522 49.8847 33.0428 49.8667 33.0339L49.8631 32.5339C49.8923 32.5473 49.9407 32.558 50.0082 32.5667C50.0762 32.5753 50.1439 32.5793 50.2114 32.5788C50.3554 32.5779 50.4765 32.5471 50.5753 32.4867C50.6741 32.4263 50.7569 32.3447 50.8237 32.2415C50.8905 32.1388 50.9449 32.023 50.9868 31.8945L51.0928 31.5759L49.8311 27.9763L50.4321 27.9721L51.4471 31.0564L51.366 31.057L52.3174 27.9589L52.9087 27.9549L51.6215 31.8597C51.5491 32.0783 51.4607 32.2796 51.3571 32.4627C51.2539 32.6458 51.1152 32.793 50.9412 32.905C50.7677 33.0164 50.5377 33.0731 50.2518 33.0751Z" fill="#160804" style="fill:#160804;fill:color(display-p3 0.0863 0.0314 0.0157);fill-opacity:1;"/>
<path d="M63.3051 27.1897C63.2738 27.1864 63.2427 27.1864 63.2115 27.1864C62.7842 27.1864 62.4131 27.3298 62.1637 27.4992L62.148 27.4894V27.2744H61.1719V31.5094L62.0014 31.5127H62.148V28.356C62.3726 28.1866 62.6627 28.0628 63.0025 28.0628C63.0774 28.0628 63.1528 28.0664 63.2208 28.0823C63.7025 28.1944 63.8757 28.5943 63.8757 29.0158V31.5127H64.8488V28.8414C64.8488 28.2988 64.6924 27.8629 64.3592 27.5871C64.0648 27.3435 63.698 27.206 63.3051 27.1897Z" fill="#160804" style="fill:#160804;fill:color(display-p3 0.0863 0.0314 0.0157);fill-opacity:1;"/>
<path d="M59.4707 27.276V31.5127H60.4459V27.276H60.4451H59.4707Z" fill="#160804" style="fill:#160804;fill:color(display-p3 0.0863 0.0314 0.0157);fill-opacity:1;"/>
<path d="M66.367 28.9558C66.4906 28.319 66.9522 28.0262 67.4133 28.0262C67.8664 28.0262 68.3876 28.319 68.4618 28.9558H66.367ZM67.4214 27.1829C66.3176 27.1829 65.3535 28.0605 65.3535 29.4032C65.3535 29.5524 65.3657 29.6964 65.3892 29.8336C65.3979 29.8846 65.4081 29.9348 65.4199 29.9836C65.4237 30 65.4277 30.0161 65.4322 30.0328C65.4362 30.0487 65.4406 30.065 65.4453 30.0808C65.4572 30.1226 65.47 30.164 65.4843 30.2044C65.7842 31.0741 66.5594 31.6064 67.4191 31.6064C67.4479 31.6064 67.4766 31.6057 67.5051 31.6043C68.1748 31.5771 68.7826 31.2294 69.0942 30.5811C69.1371 30.4926 69.1741 30.3981 69.2052 30.2984H69.0942H69.0342H68.3122C68.094 30.6746 67.6538 30.8176 67.2432 30.746C66.7686 30.6632 66.4809 30.3019 66.3916 29.8429C66.3809 29.7886 66.3729 29.7337 66.367 29.6787H69.3683C69.3845 29.567 69.393 29.3947 69.393 29.2571C69.393 27.8971 68.4268 27.1829 67.4214 27.1829Z" fill="#160804" style="fill:#160804;fill:color(display-p3 0.0863 0.0314 0.0157);fill-opacity:1;"/>
<path d="M56.7429 30.7089C56.3966 30.7089 56.0997 30.5799 55.8688 30.4074V28.1451H56.7013C57.4519 28.1451 57.897 28.659 57.897 29.4082C57.897 30.1489 57.4601 30.7089 56.7429 30.7089ZM56.7346 27.2753C56.3468 27.2753 56.0228 27.2755 55.7205 27.2755H54.8711V33.2979H55.8688V31.2947L55.8852 31.2861C56.1409 31.4581 56.5201 31.6048 56.957 31.6048C58.0123 31.6048 58.903 30.7605 58.903 29.4603C58.903 28.1339 57.9876 27.2753 56.7346 27.2753Z" fill="#160804" style="fill:#160804;fill:color(display-p3 0.0863 0.0314 0.0157);fill-opacity:1;"/>
<path d="M79.6083 30.6626H78.7945V28.3573C79.0203 28.1888 79.3105 28.0627 79.649 28.0627C80.3501 28.0627 80.777 28.61 80.777 29.334C80.777 30.0664 80.342 30.6626 79.6083 30.6626ZM79.8582 27.187C79.4312 27.187 79.0606 27.3303 78.8107 27.4985L78.7945 27.4901V25.5387L77.8193 25.5367V31.5105L78.6496 31.5125C78.9451 31.5125 79.2618 31.5127 79.6409 31.5127C80.8656 31.5127 81.7603 30.5797 81.7603 29.2831C81.7603 28.0122 80.8897 27.187 79.8582 27.187Z" fill="#160804" style="fill:#160804;fill:color(display-p3 0.0863 0.0314 0.0157);fill-opacity:1;"/>
<path d="M84.2802 28.9728C83.6919 28.8437 83.1923 28.8524 83.1923 28.4565C83.1923 28.1639 83.4663 28.0348 83.8853 28.0348C84.2883 28.0348 84.8685 28.1724 85.3522 28.465V27.5183C84.933 27.2859 84.3608 27.1827 83.8853 27.1827C82.9343 27.1827 82.217 27.6474 82.209 28.5339C82.209 29.2999 82.7248 29.5839 83.4824 29.756C84.0868 29.8937 84.5945 29.8765 84.5945 30.2982C84.5945 30.6167 84.3124 30.7544 83.8692 30.7544C83.434 30.7544 82.8296 30.6081 82.3299 30.2811V31.2535C82.7731 31.4945 83.3615 31.6064 83.8532 31.6064C84.7879 31.6064 85.5778 31.1675 85.5778 30.2122C85.5778 29.4032 85.0378 29.1449 84.2802 28.9728Z" fill="#160804" style="fill:#160804;fill:color(display-p3 0.0863 0.0314 0.0157);fill-opacity:1;"/>
<path d="M76.1274 30.4332C75.7744 30.6729 75.4519 30.7507 75.1793 30.7207C74.2988 30.6261 74.1787 29.8399 74.155 29.6454C74.1058 29.2492 74.1473 28.5188 74.7187 28.2039C75.4409 27.806 76.1274 28.3543 76.1274 28.3543V30.4332ZM76.1274 27.4867L76.1114 27.4973C75.4942 27.0879 74.8356 27.2002 74.8356 27.2002C73.6809 27.3603 73.1111 28.4136 73.0511 29.1767C73.0002 29.8293 73.1653 30.8427 74.2396 31.4113C74.9676 31.7969 75.7329 31.5325 76.1114 31.291C76.1173 31.2946 76.1224 31.298 76.1274 31.3007V31.5156H77.1035V27.2719H76.1274V27.4867Z" fill="#160804" style="fill:#160804;fill:color(display-p3 0.0863 0.0314 0.0157);fill-opacity:1;"/>
<path d="M72.2225 30.4988V25.5355H71.25V30.5305V30.5379V30.5434H71.2503C71.253 31.4424 71.8774 31.5127 72.0684 31.5127L72.8748 31.5124V30.6638L72.2257 30.6641" fill="#160804" style="fill:#160804;fill:color(display-p3 0.0863 0.0314 0.0157);fill-opacity:1;"/>
<path d="M59.4756 26.2561H60.4486V27.2725L61.1407 26.5495V25.5334H60.167L59.4756 26.2561Z" fill="#160804" style="fill:#160804;fill:color(display-p3 0.0863 0.0314 0.0157);fill-opacity:1;"/>
</svg>
